<?xml version="1.0" encoding="utf-8"?>
<!-- Generator: Adobe Illustrator 26.4.1, SVG Export Plug-In . SVG Version: 6.00 Build 0)  -->
<svg version="1.1" xmlns="http://www.w3.org/2000/svg" xmlns:xlink="http://www.w3.org/1999/xlink" x="0px" y="0px"
	 viewBox="0 0 612 792" style="enable-background:new 0 0 612 792;" xml:space="preserve">
<style type="text/css">
	.st0{fill:#FFFFFF;stroke:#231F20;stroke-width:1.6072;stroke-miterlimit:10;}
	.st1{fill:none;}
	.st2{fill:#231F20;}
	.st3{font-family:'Helvetica-Bold';}
	.st4{font-size:12px;}
	.st5{font-family:'Helvetica-LightOblique';}
	.st6{font-family:'Helvetica';}
	.st7{font-size:11px;}
	.st8{font-size:20px;}
	.st9{font-family:'Helvetica-Light';}
	.st10{font-size:36px;}
	.st11{fill:none;stroke:#231F20;stroke-width:0.5;stroke-linecap:round;stroke-linejoin:round;}
	.st12{fill:#3B97D3;}
	.st13{fill:#FFFFFF;}
	.st14{fill:none;stroke:#D1D3D4;stroke-width:0.5;stroke-linecap:round;stroke-linejoin:round;}
	.st15{fill:#D1D3D4;}
	.st16{fill:none;stroke:#FFFFFF;stroke-width:0.75;stroke-linecap:round;stroke-linejoin:round;stroke-miterlimit:10;}
	.st17{fill:#FFFFFF;stroke:#231F20;stroke-miterlimit:10;}
	.st18{opacity:0.49;fill:#859193;}
	.st19{fill:none;stroke:#231F20;stroke-miterlimit:10;}
</style>
<g id="BASELINE__x2B__GRID">
</g>
<g id="TYPE">
	<rect x="55.7" y="222.3" class="st1" width="443.9" height="41.8"/>
	<text transform="matrix(1 0 0 1 55.6737 230.9136)"><tspan x="0" y="0" class="st2 st3 st4">Web Development Coding Bootcamp  </tspan><tspan x="217.3" y="0" class="st2 st5 st4">University of Richmond</tspan><tspan x="0" y="15" class="st2 st6 st7">Javascript, HTML, CSS, React, MySQL, Node.js, Express, Mongo, Git</tspan></text>
	<g>
		<rect x="33.2" y="78.6" class="st1" width="196" height="16.2"/>
		<text transform="matrix(1 0 0 1 33.184 93.0002)" class="st2 st3 st8">Relevant experience</text>
	</g>
	<g>
		<rect x="33.2" y="264.6" class="st1" width="162.9" height="15.4"/>
		<text transform="matrix(1 0 0 1 33.184 278.9984)" class="st2 st3 st8">Work experience</text>
	</g>
	<rect x="55.7" y="165.4" class="st1" width="523.5" height="46.9"/>
	<text transform="matrix(1 0 0 1 55.6736 174.0355)"><tspan x="0" y="0" class="st2 st3 st4">Showcase Website  </tspan><tspan x="114.7" y="0" class="st2 st5 st4">camillemhughes.com</tspan><tspan x="0" y="18" class="st2 st9 st4">Multi-page front-end web application developed and designed to showcase projects.</tspan><tspan x="0" y="33" class="st2 st6 st7">Vue3, HTML, CSS, Javascript, Adobe Xd</tspan></text>
	<text transform="matrix(1 0 0 1 32.469 53.872)"><tspan x="0" y="0" class="st2 st3 st10">Ca</tspan><tspan x="46" y="0" class="st2 st3 st10">m</tspan><tspan x="78.7" y="0" class="st2 st3 st10">ille </tspan><tspan x="138.8" y="0" class="st2 st3 st10">H</tspan><tspan x="164.1" y="0" class="st2 st3 st10">ughes</tspan></text>
	<rect x="55.7" y="492.4" class="st1" width="327.3" height="43.2"/>
	<text transform="matrix(1 0 0 1 55.674 500.9838)"><tspan x="0" y="0" class="st3 st4">Graphic Designer</tspan><tspan x="0" y="15" class="st5 st4">Hotel Greene, Richmond, VA</tspan><tspan x="0" y="30" class="st5 st4">Freelance, Richmond, VA</tspan></text>
	<g>
		<text transform="matrix(1 0 0 1 459.9968 229.6241)" class="st2 st6 st7"> Oct 2018—May 2019</text>
	</g>
	<g>
		<text transform="matrix(1 0 0 1 443.4865 530.3771)" class="st2 st6 st7">      Dec 2015—Dec 2020</text>
	</g>
	<g>
		<g>
			<line class="st11" x1="237.5" y1="86.4" x2="566.9" y2="86.4"/>
			<g>
				<rect x="235.9" y="84.8" class="st2" width="3.3" height="3.3"/>
			</g>
		</g>
	</g>
	<g>
		<g>
			<line class="st11" x1="202.9" y1="272.2" x2="566.9" y2="272.2"/>
			<g>
				<rect x="201.3" y="270.5" class="st2" width="3.3" height="3.3"/>
			</g>
		</g>
	</g>
	<g>
		<text transform="matrix(1 0 0 1 452.655 515.5468)" class="st2 st6 st7">      Aug 2019—Present</text>
	</g>
	<rect x="55.7" y="334.7" class="st1" width="385.4" height="44.4"/>
	<text transform="matrix(1 0 0 1 55.6737 345.0292)"><tspan x="0" y="0" class="st3 st4">Chief Operating Officer  </tspan><tspan x="138.7" y="0" class="st5 st4">Hotel Greene, Richmond, VA</tspan><tspan x="0" y="15" class="st2 st6 st7">Promoted from: Operations Manager | Mar 2020—Mar 2021</tspan><tspan x="0" y="30" class="st2 st6 st7">Promoted from: Front of House Manager/Staff Manager | Aug 2019—Mar 2020</tspan></text>
	<rect x="73.5" y="385" class="st1" width="495" height="99.1"/>
	<text transform="matrix(1 0 0 1 73.4571 392.9109)"><tspan x="0" y="0" class="st5 st7">Led management team: fostered collaboration, ensured target outcomes for special events,  </tspan><tspan x="0" y="15" class="st5 st7">and managed deadlines for all operational and marketing milestones</tspan><tspan x="0" y="33" class="st5 st7">Formulated new customer and staff business infrastructure to meet the shifting demands of </tspan><tspan x="0" y="48" class="st5 st7">COVID-19 while increasing positive customer satisfaction by 7% in feedback results</tspan><tspan x="0" y="66" class="st5 st7">Devised employee growth strategies and feedback cycles, resulting in 92% employee retention rate</tspan><tspan x="0" y="84" class="st5 st7">Created staff onboarding and training policies, cutting training labor costs by 22%</tspan></text>
	<g>
		<text transform="matrix(1 0 0 1 446.5322 344.0077)" class="st2 st6 st7">     Aug 2019—Dec 2021</text>
	</g>
	<polygon points="67.2,388.6 67.2,387.4 68.8,388 70.3,388.6 68.8,389.2 67.2,389.8 	"/>
	<polygon points="67.2,421.5 67.2,420.3 68.8,420.9 70.3,421.5 68.8,422.1 67.2,422.7 	"/>
	<polygon points="67.2,454.5 67.2,453.4 68.8,453.9 70.3,454.5 68.8,455.1 67.2,455.7 	"/>
	<polygon points="67.2,472.6 67.2,471.4 68.8,472 70.3,472.6 68.8,473.2 67.2,473.7 	"/>
	<rect x="55.7" y="292.6" class="st1" width="459.8" height="10.4"/>
	<text transform="matrix(1 0 0 1 55.6737 302.9368)"><tspan x="0" y="0" class="st3 st4">Operations and Brand Advisor  </tspan><tspan x="180.7" y="0" class="st5 st4">Hotel Greene, Richmond, VA </tspan></text>
	<g>
		<text transform="matrix(1 0 0 1 468.5429 302.0062)" class="st2 st6 st7">   Jan 2022–Present</text>
	</g>
	<rect x="55.7" y="597.3" class="st1" width="320.8" height="26.3"/>
	<text transform="matrix(1 0 0 1 55.674 605.9615)"><tspan x="0" y="0" class="st3 st4">Shift Supervisor  </tspan><tspan x="99.4" y="0" class="st5 st4">Greenleaf’s Pool Room, Richmond, VA</tspan><tspan x="0" y="15" class="st2 st6 st7">Promoted from: Head Server | Nov 2015—May 2017</tspan></text>
	<g>
		<text transform="matrix(1 0 0 1 443.9262 605.2628)"><tspan x="0" y="0" class="st2 st6 st7">      Nov </tspan><tspan x="41" y="0" class="st2 st6 st7">2</tspan><tspan x="47.3" y="0" class="st2 st6 st7">0</tspan><tspan x="53.2" y="0" class="st2 st6 st7">1</tspan><tspan x="58.9" y="0" class="st2 st6 st7">5—Nov 2019</tspan></text>
	</g>
	<g>
		<text transform="matrix(1 0 0 1 542.5288 172.8981)" class="st2 st6 st7">2022</text>
	</g>
	<g>
		<rect x="315.6" y="31.2" class="st1" width="251.4" height="28.7"/>
		<text transform="matrix(1 0 0 1 350.1903 39.1367)"><tspan x="0" y="0" class="st2 st6 st7">hughescamillem@gmail.com | </tspan><tspan x="149.7" y="0" class="st2 st6 st7">7</tspan><tspan x="155.6" y="0" class="st2 st6 st7">03.341.7898</tspan><tspan x="34.2" y="15" class="st2 st6 st7">camillemhughes.com | Richmond, VA</tspan></text>
	</g>
	<g>
		<rect x="33.2" y="690.6" class="st1" width="113.7" height="24"/>
		<text transform="matrix(1 0 0 1 33.184 704.9746)" class="st2 st3 st8">Education</text>
	</g>
	<g>
		<g>
			<line class="st11" x1="140.4" y1="698.2" x2="566.9" y2="698.2"/>
			<g>
				<rect x="138.8" y="696.6" class="st2" width="3.3" height="3.3"/>
			</g>
		</g>
	</g>
	<rect x="55.7" y="720.3" class="st1" width="520.1" height="12"/>
	<text transform="matrix(1 0 0 1 55.6737 728.9319)"><tspan x="0" y="0" class="st2 st3 st4">B.F.A. Communication Arts </tspan><tspan x="159.3" y="0" class="st5 st4">Virginia Commonwealth University</tspan></text>
	<g>
		<text transform="matrix(1 0 0 1 442.2565 727.7672)" class="st2 st6 st7">      Aug 2011—May 2015</text>
	</g>
	<g>
		<rect x="33.2" y="639.7" class="st1" width="70.8" height="24"/>
		<text transform="matrix(1 0 0 1 33.184 654.0517)" class="st2 st3 st8">Skills</text>
	</g>
	<g>
		<g>
			<line class="st11" x1="96" y1="647.1" x2="566.9" y2="647.1"/>
			<g>
				<rect x="94.4" y="645.4" class="st2" width="3.3" height="3.3"/>
			</g>
		</g>
	</g>
	<g>
		<rect x="55.7" y="667" class="st1" width="520.1" height="11.8"/>
		<text transform="matrix(1 0 0 1 55.6737 674.9661)" class="st2 st9 st7">Javascript, Vue, React, HTML, CSS, Express, Node.js, Git, APIs, MySQL, Mongo, Adobe CC</text>
	</g>
	<g>
		<rect x="37.9" y="758.2" class="st1" width="303.5" height="16.5"/>
		<text transform="matrix(1 0 0 1 37.885 766.1017)" class="st2 st6 st7">linkedin.com/in/camillemhughes | github.com/camille-the-eel</text>
	</g>
	<rect x="55.7" y="108.3" class="st1" width="523.5" height="46.9"/>
	<text transform="matrix(1 0 0 1 55.6736 116.9658)"><tspan x="0" y="0" class="st2 st3 st4">‘Little Bar Book’ Prototype  </tspan><tspan x="158" y="0" class="st2 st5 st4">github.com/camille-the-eel/bar-book_v0</tspan><tspan x="0" y="18" class="st2 st9 st4">Full-stack web application for storing, browsing, and sharing cocktail recipes.</tspan><tspan x="0" y="33" class="st2 st6 st7">Vue3, HTML, Javascript, MySQL, Sequelize, Node,js, Express, Git</tspan></text>
	<g>
		<text transform="matrix(1 0 0 1 542.5288 115.8285)" class="st2 st6 st7">2022</text>
	</g>
	<g>
		<rect x="73.5" y="313" class="st1" width="495.8" height="12.4"/>
		<text transform="matrix(1 0 0 1 73.457 320.9539)" class="st5 st7">Identified key brand and business strategies; analyzed new business development opportunities</text>
	</g>
	<polygon points="67.2,316.5 67.2,315.3 68.8,315.9 70.3,316.5 68.8,317.1 67.2,317.7 	"/>
	<g>
		<rect x="73.5" y="539.6" class="st1" width="494.2" height="44.6"/>
		<text transform="matrix(1 0 0 1 73.457 549.023)"><tspan x="0" y="0" class="st5 st7">Conceptualized and designed print and marketing materials, including marketing campaigns that </tspan><tspan x="0" y="15" class="st5 st7">resulted in 110% ticket sales; collaborated with illustrators, publishers, and printers</tspan><tspan x="0" y="33" class="st5 st7">Devised brand strategy; managed brand assets and enforced brand guidelines</tspan></text>
	</g>
	<polygon points="67.2,544.6 67.2,543.4 68.8,544 70.3,544.6 68.8,545.2 67.2,545.8 	"/>
	<polygon points="67.2,577.5 67.2,576.3 68.8,576.9 70.3,577.5 68.8,578.1 67.2,578.7 	"/>
</g>
<g id="Layer_3">
</g>
<g id="Layer_4">
</g>
</svg>
